<?xml version="1.0" encoding="UTF-8" standalone="no"?>
<svg
   xmlns:dc="http://purl.org/dc/elements/1.1/"
   xmlns:cc="http://creativecommons.org/ns#"
   xmlns:rdf="http://www.w3.org/1999/02/22-rdf-syntax-ns#"
   xmlns:svg="http://www.w3.org/2000/svg"
   xmlns="http://www.w3.org/2000/svg"
   xmlns:sodipodi="http://sodipodi.sourceforge.net/DTD/sodipodi-0.dtd"
   xmlns:inkscape="http://www.inkscape.org/namespaces/inkscape"
   width="64"
   height="64"
   shape-rendering="geometricPrecision"
   text-rendering="geometricPrecision"
   image-rendering="optimizeQuality"
   fill-rule="evenodd"
   clip-rule="evenodd"
   viewBox="0 0 640 640"
   version="1.1"
   id="svg4"
   sodipodi:docname="pyequion_logo.svg"
   inkscape:version="0.92.3 (2405546, 2018-03-11)">
  <metadata
     id="metadata10">
    <rdf:RDF>
      <cc:Work
         rdf:about="">
        <dc:format>image/svg+xml</dc:format>
        <dc:type
           rdf:resource="http://purl.org/dc/dcmitype/StillImage" />
        <dc:title></dc:title>
      </cc:Work>
    </rdf:RDF>
  </metadata>
  <defs
     id="defs8" />
  <sodipodi:namedview
     pagecolor="#ffffff"
     bordercolor="#666666"
     borderopacity="1"
     objecttolerance="10"
     gridtolerance="10"
     guidetolerance="10"
     inkscape:pageopacity="0"
     inkscape:pageshadow="2"
     inkscape:window-width="1418"
     inkscape:window-height="766"
     id="namedview6"
     showgrid="false"
     inkscape:zoom="1.84375"
     inkscape:cx="-50.363332"
     inkscape:cy="7.6621217"
     inkscape:window-x="0"
     inkscape:window-y="27"
     inkscape:window-maximized="0"
     inkscape:current-layer="svg4" />
  <path
     d="m 328.67969,45.24097 c 10.11001,38.862114 21.74188,69.91065 34.67975,92.9591 12.93715,23.04048 32.72111,48.03438 59.25687,74.97372 l 11.41529,11.42268 c 34.67902,34.66624 51.9666,69.42644 51.9666,104.08475 0,38.36995 -15.43426,71.27796 -46.31162,98.71739 -30.99079,27.43148 -67.95775,41.19784 -111.00764,41.19784 -42.94456,0 -79.79806,-13.76636 -110.78811,-41.19784 -30.87737,-27.43877 -46.32047,-60.3481 -46.32047,-98.71739 0,-34.65831 17.28758,-69.41851 51.97544,-104.08475 l 11.41457,-11.42268 c 26.52692,-26.93934 46.32045,-51.93324 59.25759,-74.97372 12.93714,-23.04845 24.46514,-54.096986 34.46173,-92.9591 z M 224.55496,308.06311 c -0.79187,-7.86781 5.67192,-14.82937 14.43394,-15.53981 8.76938,-0.71905 16.52224,5.08622 17.31336,12.96131 1.9837,19.0325 6.62068,36.56541 15.48656,51.69112 8.56977,14.62563 21.28961,27.18146 39.6902,36.86175 7.59597,3.99278 10.13581,12.76684 5.69035,19.57956 -4.4543,6.82066 -14.22474,9.1101 -21.81113,5.10937 -23.97823,-12.61005 -40.58739,-29.02502 -51.81926,-48.19843 -10.94537,-18.68059 -16.61802,-39.81531 -18.98402,-62.46487 z"
     id="path2"
     inkscape:connector-curvature="0"
     style="stroke-width:0.69804388" />
  <g
     style="clip-rule:evenodd;fill-rule:evenodd;image-rendering:optimizeQuality;shape-rendering:geometricPrecision;text-rendering:geometricPrecision"
     id="g4553"
     transform="matrix(0.19260663,0,0,0.19311164,3.1770115,0.61278041)">
    <path
       id="path4542"
       d="m 2658,507 c -9,-9 -18,-15 -28,-19 -9,-4 -19,-6 -31,-6 -12,0 -23,2 -32,6 -9,4 -18,10 -27,19 l -1,1 -168,168 c -25,25 -64,28 -92,8 -20,-13 -41,-25 -63,-37 -23,-13 -46,-24 -69,-34 -23,-11 -47,-21 -72,-30 -22,-9 -47,-17 -73,-26 -31,-10 -50,-39 -50,-69 V 230 c 0,-12 -2,-23 -6,-33 -4,-9 -10,-18 -18,-26 -8,-8 -17,-14 -26,-18 -10,-4 -20,-6 -33,-6 h -324 c -11,0 -22,2 -31,6 -9,4 -19,10 -28,19 -8,8 -14,17 -18,26 -4,9 -6,20 -6,32 v 236 c 0,36 -26,66 -60,72 -26,6 -50,13 -72,19 -24,7 -48,16 -72,25 -1,0 -2,1 -4,1 -21,8 -43,18 -67,28 -24,11 -46,22 -66,33 -29,16 -64,10 -86,-12 l -186,-184 -2,-2 c -8,-8 -16,-15 -25,-18 -8,-4 -18,-6 -30,-6 -12,0 -22,2 -31,6 -10,4 -19,11 -29,20 L 506,675 c -9,9 -16,18 -20,28 -4,9 -6,19 -6,31 0,12 2,23 6,32 4,9 10,18 19,27 l 1,1 168,168 c 25,25 28,64 8,92 -13,20 -25,41 -37,63 -13,23 -24,46 -34,69 -11,23 -21,47 -30,72 -9,22 -17,47 -26,73 -10,31 -39,50 -69,50 H 228 c -12,0 -23,2 -33,6 -9,4 -18,10 -26,18 -8,8 -14,17 -18,26 -4,10 -6,20 -6,33 v 324 c 0,11 2,22 6,31 4,9 10,19 19,28 8,8 17,14 26,18 9,4 20,6 32,6 h 236 c 36,0 66,26 72,60 6,26 13,50 19,72 7,24 16,48 25,72 9,23 19,47 30,72 11,25 23,48 33,69 15,29 9,63 -13,85 l -184,183 -1,1 c -8,8 -15,16 -18,25 -4,8 -6,18 -6,30 0,12 2,22 6,31 4,10 11,19 20,29 l 225,228 c 9,8 18,14 28,18 10,4 21,6 33,6 12,0 24,-2 33,-6 9,-4 18,-9 27,-17 l 167,-170 c 25,-26 65,-29 93,-9 20,13 41,25 63,37 23,13 46,24 69,34 23,11 47,21 72,30 22,9 47,17 73,26 31,10 50,39 50,69 v 258 c 0,12 2,23 6,33 4,9 10,18 18,26 16,16 35,24 59,24 h 324 c 11,0 22,-2 31,-6 9,-4 19,-10 28,-19 8,-8 14,-17 18,-26 4,-9 6,-20 6,-32 v -236 c 0,-36 26,-66 60,-72 26,-6 50,-13 72,-19 24,-7 48,-16 72,-25 23,-9 47,-19 72,-30 25,-11 48,-23 69,-33 29,-15 63,-9 85,13 l 183,184 1,1 c 8,8 16,15 25,18 8,4 19,6 31,6 12,0 23,-2 31,-6 9,-4 17,-10 25,-18 l 3,-3 227,-224 c 8,-9 14,-18 18,-28 4,-10 6,-21 6,-33 0,-12 -2,-24 -6,-33 -4,-9 -9,-18 -17,-27 l -170,-167 c -26,-25 -29,-65 -9,-93 13,-20 25,-41 37,-63 13,-23 24,-46 34,-69 11,-23 21,-47 30,-72 9,-22 17,-47 26,-73 10,-31 39,-50 69,-50 h 258 c 12,0 23,-2 33,-6 9,-4 18,-10 26,-18 8,-8 14,-17 18,-26 4,-10 6,-20 6,-33 v -324 c 0,-11 -2,-22 -6,-31 -4,-9 -10,-19 -19,-28 -8,-8 -17,-14 -26,-18 -9,-4 -20,-6 -32,-6 h -236 c -36,0 -67,-27 -72,-61 -6,-23 -12,-46 -19,-70 -7,-23 -15,-47 -25,-72 0,-1 -1,-2 -1,-4 -9,-24 -19,-47 -28,-68 -10,-23 -21,-45 -33,-66 -16,-29 -10,-64 12,-86 l 184,-186 2,-2 c 8,-8 15,-16 18,-25 4,-8 6,-18 6,-30 0,-12 -2,-22 -6,-31 -4,-10 -11,-19 -20,-29 L 2657,506 Z m 29,-154 c 27,11 52,28 74,50 l 227,227 1,1 c 22,22 39,47 50,74 12,28 18,57 18,88 0,31 -6,61 -18,88 -12,27 -29,51 -51,72 l -146,148 c 4,9 9,18 13,27 12,25 22,51 32,76 1,1 1,2 1,4 10,25 19,52 28,81 3,9 6,18 8,28 h 180 c 31,0 61,6 88,17 27,11 51,28 73,50 l 2,2 c 21,22 38,47 49,74 11,27 17,56 17,86 v 324 c 0,31 -6,60 -17,88 -11,27 -28,52 -50,74 -22,22 -47,39 -74,50 -27,11 -56,17 -88,17 h -206 c -4,10 -7,20 -11,30 -10,27 -22,53 -34,80 -13,27 -25,53 -38,78 -4,8 -9,16 -13,24 l 129,127 3,3 c 21,22 37,47 48,74 11,27 16,56 16,86 0,30 -5,59 -16,86 -11,27 -26,52 -47,74 -1,1 -1,2 -2,2 l -229,226 c -21,22 -46,40 -73,51 -27,12 -57,18 -89,18 -31,0 -61,-6 -89,-18 -28,-12 -52,-29 -73,-51 l -145,-145 c -10,5 -19,9 -28,13 -25,11 -51,22 -79,33 -26,10 -54,20 -82,28 -9,3 -19,6 -28,8 v 180 c 0,31 -6,61 -17,88 -11,27 -28,51 -50,73 l -2,2 c -22,21 -47,38 -73,49 -27,11 -56,17 -86,17 h -324 c -64,0 -118,-22 -162,-67 -22,-22 -39,-47 -50,-74 -11,-27 -17,-56 -17,-88 v -206 c -10,-4 -20,-7 -30,-11 -27,-10 -53,-22 -80,-34 -27,-13 -53,-25 -78,-38 -8,-4 -16,-9 -24,-13 l -127,129 -3,3 c -22,21 -47,37 -74,48 -27,11 -56,16 -86,16 -30,0 -59,-5 -86,-16 -27,-11 -52,-26 -74,-47 -1,-1 -2,-1 -2,-2 L 346,2705 c -22,-22 -39,-47 -50,-74 -12,-28 -18,-57 -18,-88 0,-31 6,-61 18,-88 12,-27 29,-51 51,-72 l 145,-145 c -5,-10 -9,-19 -13,-28 -11,-25 -22,-51 -33,-79 -10,-26 -20,-54 -28,-82 -3,-10 -6,-19 -8,-28 H 230 c -31,0 -61,-6 -88,-17 -27,-11 -51,-28 -73,-50 l -2,-2 C 46,1930 29,1905 18,1879 7,1852 1,1823 1,1793 v -324 c 0,-31 6,-60 17,-88 11,-27 28,-52 50,-74 22,-22 47,-39 74,-50 27,-11 56,-17 88,-17 h 206 c 4,-10 7,-20 11,-30 10,-27 22,-53 34,-80 13,-27 25,-53 38,-78 4,-8 9,-16 13,-24 L 405,901 c -22,-22 -39,-47 -51,-74 -12,-28 -18,-57 -18,-88 0,-31 6,-60 18,-88 12,-28 28,-52 51,-74 l 227,-227 1,-1 c 22,-22 47,-39 74,-50 28,-12 57,-18 88,-18 31,0 61,6 88,18 27,12 51,29 72,51 l 148,145 c 9,-4 18,-9 27,-13 23,-10 48,-21 75,-32 1,-1 2,-1 4,-1 26,-10 54,-20 82,-28 9,-3 19,-6 28,-8 V 233 c 0,-31 6,-61 17,-88 11,-27 28,-51 50,-73 l 2,-2 c 22,-21 47,-38 73,-49 27,-11 56,-17 86,-17 h 324 c 31,0 60,6 88,17 27,11 52,28 75,50 22,22 39,47 50,74 11,27 17,56 17,88 v 206 c 10,4 20,7 30,11 27,10 53,21 80,34 27,13 53,25 78,38 8,4 16,9 24,13 l 127,-127 c 22,-22 47,-39 74,-51 28,-12 57,-18 88,-18 31,0 60,6 88,18 z M 1667,958 c 48,0 95,5 141,14 45,9 90,23 134,42 42,18 83,40 120,66 38,25 72,54 104,85 32,32 60,67 85,104 25,38 47,78 66,120 1,2 2,4 2,6 18,43 31,86 39,129 9,46 14,93 14,141 0,48 -5,95 -14,141 -9,45 -23,90 -42,134 -18,42 -40,82 -66,120 -25,38 -54,72 -85,104 -32,32 -67,60 -104,85 -38,25 -78,47 -120,66 -2,1 -4,2 -6,2 -43,18 -86,31 -129,39 -46,9 -93,14 -141,14 -48,0 -95,-5 -141,-14 -45,-9 -90,-23 -134,-42 -42,-18 -82,-40 -120,-66 -38,-25 -72,-54 -104,-85 -32,-32 -60,-67 -85,-104 -25,-38 -47,-78 -66,-120 -1,-2 -2,-4 -2,-6 -18,-43 -31,-86 -39,-129 -9,-46 -14,-93 -14,-141 0,-48 5,-95 14,-141 9,-45 23,-90 42,-134 18,-42 40,-82 66,-120 25,-38 54,-72 85,-104 32,-32 67,-60 104,-85 38,-25 78,-47 120,-66 2,-1 4,-2 6,-2 43,-18 85,-31 129,-39 46,-9 93,-14 141,-14 z m 113,157 c -36,-7 -74,-11 -113,-11 -39,0 -76,4 -113,11 -35,7 -69,17 -101,30 -1,1 -3,1 -4,2 -35,15 -68,33 -97,52 -30,20 -57,42 -83,67 -25,25 -48,53 -68,83 -20,29 -37,62 -52,97 -14,34 -25,69 -32,106 -7,36 -11,74 -11,113 0,39 4,76 11,113 7,35 17,69 30,102 1,1 1,3 2,4 15,35 33,68 52,97 20,30 42,57 68,83 25,25 53,48 83,67 29,20 62,37 97,52 34,14 69,25 106,32 36,7 74,11 113,11 39,0 76,-4 113,-11 35,-7 69,-17 101,-30 1,-1 3,-1 4,-2 35,-15 68,-33 97,-52 30,-20 57,-42 83,-67 25,-25 48,-53 68,-83 20,-29 37,-62 52,-97 14,-34 25,-69 32,-106 7,-36 11,-74 11,-113 0,-39 -4,-76 -11,-113 -7,-35 -17,-69 -30,-101 -1,-1 -1,-3 -2,-4 -15,-35 -33,-68 -52,-97 -20,-30 -42,-57 -68,-83 -25,-25 -53,-48 -83,-67 -29,-20 -62,-37 -97,-52 -34,-14 -69,-25 -106,-32 z"
       inkscape:connector-curvature="0"
       style="fill-rule:nonzero" />
  </g>
  <text
     xml:space="preserve"
     style="font-style:normal;font-weight:normal;font-size:260.66415405px;line-height:1.25;font-family:sans-serif;letter-spacing:0px;word-spacing:0px;fill:#ffffff;fill-opacity:1;stroke:none;stroke-width:6.51660442"
     x="224.24611"
     y="326.48969"
     id="text4522"
     transform="scale(0.98691986,1.0132535)"><tspan
       sodipodi:role="line"
       id="tspan4520"
       x="224.24611"
       y="326.48969"
       style="fill:#ffffff;fill-opacity:1;stroke-width:6.51660442">+</tspan></text>
  <path
     style="fill:#000000;fill-opacity:1;stroke:#000000;stroke-width:26.60308456;stroke-miterlimit:4;stroke-dasharray:26.6030836, 53.2061672;stroke-dashoffset:0;stroke-opacity:1"
     id="path4658"
     d="m 246.02363,310.97177 c 0.8324,4.29139 1.56035,8.60156 2.28514,12.91245 0.5011,3.11681 0.8506,6.25471 1.68701,9.30434 0.346,1.03372 0.7964,2.02791 0.9058,3.12106 -0.3531,2.02515 -0.1805,1.63999 -4.83978,2.69324 -0.4548,0.1028 -0.6548,-0.6652 -0.9584,-1.01916 -2.20555,-2.57175 -4.2333,-5.3119 -6.28915,-8.0011 -3.66118,-4.79646 -7.24729,-9.64009 -10.5988,-14.65875 -0.6618,-0.991 -1.3377,-1.97315 -1.96997,-2.98325 -0.5486,-0.8764 -1.04756,-1.78281 -1.57134,-2.67422 -1.24897,-2.49037 -2.67536,-5.06192 -2.68519,-7.93264 -0.004,-1.10516 0.1808,-1.52823 0.4611,-2.54604 0.4134,-0.8954 0.9255,-1.80832 1.80537,-2.33278 2.95646,-1.76219 4.00457,-2.69552 6.71304,-3.23621 1.00851,-0.143 2.02642,-0.187 3.04375,-0.193 0.2199,-10e-4 0.4414,-0.028 0.6596,-10e-4 0.2261,0.028 0.442,0.1105 0.6631,0.1657 0.2461,0.1663 0.5197,0.2978 0.7383,0.4989 0.7407,0.6818 1.07645,1.37198 1.52538,2.28729 1.04628,2.13321 1.68603,4.39593 2.37952,6.65985 1.56002,5.70684 2.45071,11.55359 2.9831,17.43616 0.3366,3.60735 0.4098,7.29319 -0.5283,10.82368 -0.1258,0.4736 -0.3,0.9329 -0.45,1.39939 -0.6467,1.44415 -1.48021,2.90264 -2.88817,3.72825 -1.60635,0.9419 -3.23193,1.85067 -4.8479,2.77601 -1.25548,0.6489 -2.64044,0.7833 -4.02623,0.861 -1.08441,0.029 -2.27809,0.1497 -3.25675,-0.4489 -0.7954,-0.4865 -0.9977,-0.936 -1.53508,-1.68308 -0.9035,-1.97667 -1.37736,-4.24927 -1.42273,-6.42473 -0.033,-1.56406 0.1461,-2.39936 0.3603,-3.94191 0.9244,-4.32577 2.94526,-8.29267 4.84671,-12.25162 1.53174,-2.97926 1.75516,-3.52593 5.99669,-5.06337 0.3024,-0.1096 0.4258,0.4978 0.5439,0.7969 0.2567,0.6505 0.3342,2.1473 0.39,2.76293 0.1769,3.47108 -0.6784,6.59559 -2.19102,9.6861 -0.5875,0.9706 -1.20794,2.06543 -2.23841,2.64191 -4.84134,2.70843 -3.02603,2.95335 -5.35022,2.48133 -0.1579,-0.1439 -0.343,-0.2628 -0.4736,-0.4318 -0.8452,-1.09323 -0.8206,-3.04122 -0.8011,-4.33978 0.1102,-1.83834 0.3679,-3.68185 0.8945,-5.45078 0.3211,-1.07859 0.5233,-1.49776 0.9434,-2.51319 0.1597,-0.3298 0.3194,-0.6595 0.4791,-0.9893 0,0 4.38086,-1.97691 4.38086,-1.97691 v 0 c -0.1764,0.3264 -0.3527,0.6528 -0.5291,0.9792 -0.4563,0.996 -0.6767,1.40259 -1.01831,2.46824 -0.5482,1.71012 -0.7807,3.51484 -0.8535,5.3032 -0.022,0.9871 -0.026,3.0871 0.7008,3.87851 0.083,0.09 0.2098,0.1257 0.3147,0.1885 1.85219,-0.1527 0.4696,-0.1006 -3.27238,2.1851 -0.1899,0.116 0.3995,-0.1989 0.584,-0.3232 0.8166,-0.5503 1.39275,-1.33339 1.91716,-2.15329 0.2191,-0.3995 0.4615,-0.7872 0.6574,-1.19857 1.22457,-2.57159 1.88084,-5.403 1.68883,-8.25265 -0.067,-0.4852 -0.1081,-0.9744 -0.1995,-1.45549 -0.064,-0.335 -0.1454,-0.6687 -0.2647,-0.9882 -0.036,-0.098 -0.2791,-0.1823 -0.1952,-0.244 6.24419,-4.58708 3.89062,-2.84 2.91063,-1.34737 -0.3109,0.4736 -0.5685,0.9802 -0.8528,1.47024 -1.96974,3.88469 -3.93757,7.83408 -4.88989,12.11231 -0.096,0.6411 -0.2255,1.27801 -0.288,1.9232 -0.2196,2.26501 0.028,4.69069 0.8086,6.83936 0.1483,0.4081 0.3646,0.7881 0.5469,1.18212 0.5365,0.6862 0.6586,1.00987 1.4393,1.40418 0.9761,0.493 2.13557,0.2909 3.17576,0.264 1.35685,-0.1159 2.69076,-0.3381 3.89364,-1.02099 -8.26687,4.83733 -3.08886,1.97683 -2.24388,1.21233 0.8142,-0.7366 1.3882,-1.68882 1.8959,-2.64887 0.5099,-1.34341 0.6547,-1.58703 0.9764,-3.05629 0.6572,-3.00256 0.5884,-6.0894 0.3773,-9.13801 -0.4665,-5.85762 -1.25222,-11.69481 -2.95496,-17.33846 -0.7401,-2.19972 -1.42251,-4.40324 -2.57477,-6.43196 -0.4228,-0.7445 -0.86,-1.4667 -1.55672,-1.98585 -0.2039,-0.1519 -0.456,-0.2251 -0.684,-0.3377 -1.39202,-0.2003 -2.82445,-0.05 -4.2072,0.1646 -2.02725,0.5024 -3.73654,1.70737 1.67157,-1.50268 0.2669,-0.1584 -0.5435,0.3075 -0.7804,0.5081 -0.593,0.5021 -0.7865,0.9208 -1.2004,1.57165 -0.3427,0.9509 -0.5682,1.38279 -0.6347,2.43546 -0.1782,2.82414 1.1381,5.44086 2.26048,7.93595 0.4853,0.905 0.9442,1.82454 1.45582,2.71491 3.59268,6.25282 7.87295,12.08149 12.37224,17.70426 2.51304,2.95692 2.69371,3.27711 5.21789,5.88219 0.5483,0.5659 1.09545,1.13557 1.68809,1.6549 0.3123,0.2736 1.29232,0.4047 1.01861,0.7169 -0.9666,1.10266 -5.30045,3.56511 -3.68348,2.40504 -0.003,-1.07758 -0.5045,-2.06809 -0.7449,-3.10401 -0.6722,-3.14096 -0.9191,-6.33822 -1.36967,-9.51501 -0.6721,-4.26469 -1.32272,-8.57149 -2.68346,-12.68127 0,0 4.34634,-2.32375 4.34634,-2.32375 z"
     inkscape:connector-curvature="0" />
  <path
     style="fill:#000000;fill-opacity:1;stroke:#000000;stroke-width:26.60308456;stroke-miterlimit:4;stroke-dasharray:26.6030836, 53.2061672;stroke-dashoffset:0;stroke-opacity:1"
     id="path4660"
     d="m 243.46721,304.78603 c -0.4869,-1.02005 -1.23044,-1.89793 -1.68543,-2.93007 0.006,-0.3651 -0.081,-0.651 0.3225,-0.8824 1.60026,-0.9171 3.21856,-1.81193 4.89838,-2.57361 0.2802,-0.1271 0.6134,-0.051 0.9207,-0.065 0.8425,-0.039 1.8774,-0.043 2.70812,-0.053 3.58672,-0.1939 6.81942,0.658 10.12589,1.94202 2.27219,1.13939 4.32101,2.7276 5.87705,4.74171 0.7173,1.08768 1.13098,1.98406 0.7569,3.2753 -0.2651,0.4451 -0.2466,0.4822 -0.6176,0.8407 -1.52021,1.46882 -5.25336,3.28314 -6.2452,3.85615 -1.27784,0.498 -2.51132,1.06619 -3.72802,1.6995 -1.2038,0.6178 -2.37743,1.28849 -3.5883,1.89523 -0.7332,0.2875 -1.43195,0.6566 -2.1682,0.9357 -0.1768,0.067 -0.3468,0.1727 -0.5352,0.188 -0.2352,0.019 -0.4684,-0.058 -0.7025,-0.087 -0.27,-0.1664 -0.5721,-0.2894 -0.81,-0.4993 -0.6613,-0.5833 -1.14179,-1.44668 -1.57316,-2.18729 -0.8051,-1.38224 -1.44717,-2.79447 -2.03966,-4.27724 -0.5852,-1.70183 -1.26663,-3.4299 -1.38472,-5.24737 -0.071,-1.09165 0.039,-1.38164 0.2141,-2.44633 0.4486,-2.14185 1.34555,-3.51403 2.99815,-4.88394 2.38109,-1.65664 4.83393,-3.45601 7.75356,-3.79414 0.9757,-0.04 1.96618,-0.15 2.94385,-0.092 0.6602,0.04 0.9492,0.1295 1.58668,0.2709 1.86242,0.8057 2.47982,1.96199 2.9706,3.84554 0.2964,1.57527 0.098,3.16245 -0.7725,4.53057 -0.182,0.2859 -0.4062,0.5425 -0.6093,0.8138 -1.27867,1.40074 -2.89238,2.44869 -4.48348,3.46106 -1.33645,0.801 -2.54818,1.77826 -3.71042,2.81019 -1.41763,1.18939 -4.25812,4.29188 -5.40569,2.65194 -0.4374,-0.6251 -0.3765,-1.60981 -0.426,-2.32155 -0.062,-2.65498 -0.018,-5.31046 -0.053,-7.96581 -0.02,-1.17286 -0.027,-0.7996 0.001,-1.88272 0.055,-2.09695 -0.5744,-1.97907 4.5419,-2.38835 0.4362,-0.035 -0.021,0.8749 -0.032,1.31235 -0.135,4.28589 -0.1962,8.5739 -0.2242,12.86172 -0.009,1.4124 -0.039,2.82505 -0.014,4.23726 0.025,1.40562 0.1086,2.80957 0.1629,4.21435 0.5616,6.15305 0.9885,12.34519 2.04491,18.44042 0.1753,1.0115 0.3924,2.01531 0.5885,3.02296 0.1955,0.9485 0.3902,1.89723 0.5866,2.84558 0.4405,2.12734 0.6139,2.84102 0.9718,4.9443 0.3362,1.97573 0.6254,3.95083 1.00919,5.91856 0.4869,2.55239 1.39636,5.00093 2.42779,7.37802 0.6866,1.73865 1.62155,3.3501 2.66697,4.89327 1.19162,1.63126 2.28171,3.3219 3.27952,5.07711 1.04726,1.88506 1.87927,3.87442 2.89649,5.77508 0.8451,1.49768 1.72695,2.8684 3.07141,3.9597 1.19671,0.6947 2.53212,1.08304 3.86867,1.40455 1.90809,0.2535 3.63775,1.1257 5.37856,1.89293 2.79057,1.05806 5.49971,2.31006 8.257,3.45015 2.72784,1.08953 5.51924,1.97971 8.36077,2.7148 1.98021,0.5714 4.01893,0.8675 6.00194,1.42611 1.69318,0.4821 2.37685,0.9712 3.25524,2.47415 0.7367,1.40296 1.10491,2.96968 1.3974,4.51706 0.3251,1.6901 0.448,3.41169 0.7925,5.09708 0.2913,1.15846 0.4823,2.33298 0.6576,3.51256 0.1979,1.13464 1.11322,1.87511 1.93788,2.59277 0.9235,0.7555 1.77325,1.59413 2.79462,2.21749 0.9296,0.6103 1.93144,1.08893 2.96064,1.50534 0.7131,0.3584 0.373,0.1777 1.02204,0.539 0,0 -4.15259,2.70255 -4.15259,2.70255 v 0 c -0.6054,-0.3466 -0.2812,-0.1776 -0.9768,-0.4991 -1.04224,-0.4497 -2.06974,-0.9272 -3.00653,-1.5758 -1.01546,-0.6705 -1.89259,-1.50351 -2.8153,-2.29351 -0.9108,-0.8021 -1.90645,-1.61558 -2.14071,-2.87133 -0.1975,-1.17497 -0.2952,-2.36766 -0.5893,-3.52681 -0.3295,-1.69319 -0.4673,-3.41607 -0.7643,-5.11552 -0.2938,-1.48803 -0.6705,-2.98583 -1.38446,-4.33424 -0.8133,-1.38156 -1.45214,-1.73976 -3.00199,-2.18863 -1.9579,-0.5378 -3.9584,-0.8942 -5.90125,-1.48932 -2.82789,-0.7807 -5.61959,-1.68357 -8.33239,-2.80748 -2.78295,-1.13894 -5.5259,-2.37804 -8.35944,-3.38957 -1.76217,-0.7303 -3.5108,-1.51701 -5.42049,-1.77094 -1.3942,-0.3589 -2.80577,-0.7602 -4.00367,-1.58945 -1.29827,-1.18085 -2.27801,-2.61169 -3.11383,-4.15081 -0.9664,-1.91856 -1.80909,-3.89713 -2.84902,-5.77813 -1.01164,-1.73447 -2.12547,-3.39775 -3.3107,-5.01913 -1.05825,-1.57351 -2.00446,-3.21402 -2.67895,-4.99298 -1.01924,-2.43728 -1.84724,-4.95381 -2.319,-7.55938 -0.7484,-4.62265 -1.25923,-9.28373 -2.27336,-13.86219 -0.4797,-2.76001 -0.6564,-3.58969 -1.01086,-6.42614 -0.6317,-5.05498 -1.01017,-10.14413 -1.39871,-15.22157 -0.056,-1.40935 -0.1364,-2.81795 -0.1694,-4.22804 -0.1305,-5.58072 0.01,-11.17381 -0.4208,-16.74543 -0.2885,-2.92968 -0.4577,-0.9591 4.32669,-3.89865 0.045,-0.027 -0.1254,0.011 -0.145,0.06 -0.2901,0.7174 -0.091,1.71336 -0.196,2.45172 -0.049,2.63066 -0.061,5.26577 0.1039,7.89289 0.056,0.5766 0.072,0.9977 0.2092,1.54897 0.024,0.098 0.044,0.207 0.1123,0.282 0.026,0.029 0.1443,-0.056 0.111,-0.036 -1.29837,0.7832 -2.59148,1.57588 -3.90892,2.32655 -0.1685,0.096 0.3049,-0.2399 0.4573,-0.3599 1.16619,-1.05217 2.36528,-2.07522 3.70757,-2.89995 1.6087,-0.9827 3.22026,-2.01682 4.58492,-3.32452 0.2107,-0.2467 0.4416,-0.4773 0.632,-0.74 0.8923,-1.23109 1.18023,-2.7023 0.9268,-4.18931 -0.4287,-1.62366 -1.02083,-2.80595 -2.71649,-3.36491 -1.47459,-0.2716 -2.97116,-0.2078 -4.45557,-0.021 -0.6006,0.1131 -1.16102,0.2402 -1.72223,0.4904 -0.1852,0.083 -0.7186,0.3749 -0.5447,0.2706 0.9881,-0.5921 5.28146,-3.10037 2.98881,-1.7347 -1.7421,1.27956 -2.70785,2.43788 -3.23197,4.60409 -0.1978,0.9605 -0.3329,1.32633 -0.2962,2.31971 0.066,1.78423 0.7232,3.50508 1.26224,5.18174 0.5693,1.45372 1.17578,2.85649 2.01346,4.18162 0.3704,0.5859 0.9555,1.47356 1.57066,1.89702 0.2136,0.147 0.4827,0.1898 0.7241,0.2847 0.2045,-0.024 0.4133,-0.023 0.6134,-0.072 0.9035,-0.2186 1.7728,-0.8422 2.64927,-1.15228 1.19984,-0.6133 2.36508,-1.28941 3.57271,-1.88715 1.22593,-0.6245 2.49915,-1.12766 3.73484,-1.72812 -7.33803,4.27377 -2.81057,1.90755 -1.47838,0.4827 0.067,-0.1215 0.1558,-0.2336 0.2023,-0.3645 0.3072,-0.8656 -0.2384,-1.78914 -0.6348,-2.51519 -1.41284,-2.00442 -3.37852,-3.53406 -5.57127,-4.61756 -0.5006,-0.1961 -0.9939,-0.4121 -1.50182,-0.5882 -2.74912,-0.9531 -5.63754,-1.35965 -8.5434,-1.18143 -0.9314,0.041 -1.86964,0.061 -2.79668,0.1745 -0.314,0.039 -1.18622,0.3555 -0.935,0.1632 1.12898,-0.8644 2.45604,-1.43714 3.63573,-2.23088 0.1216,-0.082 -0.2994,0.016 -0.4331,0.076 -0.081,0.037 -0.1196,0.1326 -0.1794,0.1989 0.3296,1.05043 1.13124,1.89113 1.69131,2.82568 0,0 -4.34772,2.51992 -4.34772,2.51992 z"
     inkscape:connector-curvature="0" />
  <path
     style="fill:#000000;fill-opacity:1;stroke:#000000;stroke-width:26.60308456;stroke-miterlimit:4;stroke-dasharray:26.6030836, 53.2061672;stroke-dashoffset:0;stroke-opacity:1"
     id="path4662"
     d="m 309.28651,419.44547 c -0.279,-0.043 -0.5696,0.029 -0.8473,-0.023 -1.78343,-0.3355 -3.01813,-1.95029 -4.1951,-3.17244 -0.5203,-0.6195 -1.04869,-1.23229 -1.56097,-1.85844 -3.05297,-3.73156 -0.2299,-0.4146 -3.35955,-4.10228 -1.49338,-1.75965 -3.03759,-3.47342 -4.55784,-5.20965 -1.99494,-2.10619 -3.69128,-4.45937 -5.04077,-7.02825 -0.4513,-0.8591 -2.01077,-4.21931 -2.37856,-5.00507 -2.36104,-5.25645 -5.05674,-10.3481 -7.7363,-15.44529 -1.89843,-3.59319 -3.91601,-7.13205 -6.1318,-10.53962 -1.71844,-2.30447 -3.23844,-4.78866 -5.15128,-6.94503 -0.3051,-0.344 -0.64,-0.6604 -0.96,-0.9906 -1.55964,-1.56094 -3.52311,-2.50593 -5.5208,-3.36498 -2.09651,-0.9168 -4.17683,-1.85867 -6.28653,-2.74632 -2.05642,-0.9868 -4.19411,-1.77769 -6.2993,-2.64915 -2.00794,-0.7639 -3.95854,-1.66326 -5.97958,-2.39243 -0.3878,-0.1188 -1.1673,-0.4136 -1.61746,-0.3552 -0.2057,0.027 -0.7504,0.3536 -0.565,0.2606 1.24017,-0.6221 2.36844,-1.5793 3.72963,-1.84796 0.4175,-0.082 -0.353,0.7819 -0.4395,1.19858 -0.1297,0.6244 -0.1364,1.26823 -0.2047,1.90235 0.066,0.8753 0.069,1.75756 0.1982,2.62578 0.7547,5.08039 2.88337,9.86377 5.38573,14.30298 0.6886,1.22164 1.44681,2.40275 2.17022,3.60413 2.70517,4.12454 5.9143,7.96862 9.84778,10.98285 1.88995,1.44827 2.80623,1.8647 4.84868,3.00165 3.76116,1.95371 7.77216,2.55617 11.94101,2.79435 2.15583,0.053 4.30719,0.012 6.46129,0.1229 0.6968,0.1088 1.56958,0.1653 2.11612,0.6866 0.2724,0.2598 0.3658,0.5332 0.5214,0.8618 0.5114,1.52047 0.2433,2.15669 -0.8047,3.34591 -0.8029,0.6677 -0.8023,0.7217 -1.77363,1.27541 -1.74338,0.9939 -3.47884,2.00397 -5.25831,2.93169 -0.4273,0.2228 -0.8953,0.3577 -1.35108,0.5141 -1.53438,0.5267 -1.63232,0.4965 -3.27301,0.8568 -4.14522,0.6774 -8.38746,0.8604 -12.57816,0.5579 -1.03041,-0.074 -2.05544,-0.2105 -3.08315,-0.3158 -3.7706,-0.6263 -7.62313,-1.36195 -11.02272,-3.20077 -1.99049,-1.07664 -2.20925,-1.41447 -3.88829,-2.85303 -0.4687,-0.5947 -0.989,-1.15201 -1.40596,-1.78399 -2.06615,-3.13161 -2.49515,-6.87401 -2.79857,-10.51259 -0.3896,-5.01167 -0.022,-10.01836 0.3242,-15.01811 0.3585,-4.93572 0.5115,-9.88367 0.5084,-14.83165 0.1555,-1.34647 -0.3766,-3.66206 0.3068,-4.89002 0.092,-0.1648 0.2365,-0.294 0.3547,-0.441 1.58593,-0.865 3.10153,-1.87377 4.75779,-2.59504 0.211,-0.092 0.4552,0.114 0.647,0.2414 1.22392,0.8131 2.53579,3.66543 3.19986,4.92929 1.15373,2.60734 2.31157,5.23283 3.24687,7.92958 0.5506,1.58745 0.6771,2.16981 1.10801,3.7743 0.4415,1.55794 0.8207,3.13311 1.17135,4.71376 0.1962,0.8847 0.33,1.35964 0.3458,2.26101 0.006,0.3384 -0.041,0.6756 -0.061,1.01346 -0.2482,1.78041 -1.22999,3.0086 -2.65047,4.02061 -1.61662,0.9102 -3.20698,1.86877 -4.84986,2.73068 -0.2253,0.1182 -0.4876,0.1476 -0.7366,0.2001 -1.36245,0.2875 -2.77268,0.2685 -4.15549,0.2414 -4.13538,-0.3551 -6.87681,-2.63445 -9.87153,-5.27648 -2.28876,-2.39891 -4.26078,-5.13166 -5.60748,-8.17447 -0.7647,-1.72793 -0.92,-2.51433 -1.42638,-4.30859 -0.6178,-2.63174 -1.44605,-5.29135 -1.49066,-8.0188 -0.006,-0.3585 0.026,-0.7167 0.039,-1.07502 0.1853,-1.19512 0.7148,-2.33366 1.80742,-2.95961 4.89527,-2.80434 3.18961,-2.37246 5.93047,-2.90749 1.78308,-0.2505 3.62695,-0.3177 5.32537,0.3864 0.3264,0.1353 0.6294,0.3213 0.9441,0.4819 1.69267,1.10655 3.28377,2.41101 4.47496,4.05502 0.4307,0.7009 0.7335,1.46824 1.07243,2.21515 0,0 -4.24804,2.39678 -4.24804,2.39678 v 0 c -0.3234,-0.7186 -0.6355,-1.44458 -1.02772,-2.1295 -1.13202,-1.59497 -2.6072,-2.89737 -4.30019,-3.88073 -0.3018,-0.1396 -0.5943,-0.3016 -0.9055,-0.4187 -1.66854,-0.6276 -3.47011,-0.4891 -5.18652,-0.1689 -2.20502,0.6189 -1.12848,0.4066 2.46273,-1.81216 0.2299,-0.142 -0.4808,0.2515 -0.698,0.4123 -0.7468,0.5528 -1.14654,1.27282 -1.3455,2.17208 -0.035,0.3508 -0.091,0.7001 -0.1052,1.05244 -0.1059,2.71593 0.6929,5.40351 1.23184,8.03464 0.4831,1.82545 0.5908,2.49363 1.34317,4.25406 1.28879,3.01568 3.21355,5.70556 5.52994,8.01482 0.5854,0.4996 1.15007,1.02462 1.75633,1.49872 2.37698,1.85885 5.07908,3.26951 8.14677,3.35729 1.12349,-0.023 2.24026,-0.046 3.34959,-0.2488 1.81092,-0.3308 4.59827,-2.07553 -2.02756,1.66227 0.3181,-0.1972 0.9348,-0.5616 1.21366,-0.8087 0.8399,-0.7444 1.45035,-1.74699 1.67661,-2.8423 0.039,-0.3187 0.1058,-0.6353 0.1168,-0.9562 0.028,-0.8053 -0.097,-1.44976 -0.2367,-2.24394 -0.2807,-1.5985 -0.6408,-3.18162 -1.05463,-4.75074 -1.01322,-4.00881 -2.46075,-7.89947 -4.28876,-11.61003 -0.7695,-1.33405 -1.51688,-2.88378 -2.64138,-3.97622 -0.1835,-0.1783 -0.3974,-0.3364 -0.635,-0.4313 -0.1583,-0.063 -0.6494,0.073 -0.5109,-0.026 1.19051,-0.8545 2.49881,-1.53155 3.74821,-2.29732 -0.1471,0.089 -0.3195,0.1459 -0.4412,0.2673 -0.8623,0.8604 -0.5085,3.71444 -0.6624,4.83314 -0.237,4.99064 -0.4502,9.98248 -0.7417,14.97039 -0.3083,4.95882 -0.5721,9.9249 -0.2218,14.89117 0.2991,3.5397 0.6825,7.22109 2.67226,10.28197 0.3964,0.6098 0.8951,1.14678 1.34262,1.72017 1.67376,1.45449 1.77046,1.69139 3.76775,2.78437 3.33278,1.8238 7.11213,2.58971 10.82968,3.15372 1.02322,0.097 2.04373,0.2291 3.06966,0.2915 4.26269,0.2589 8.57084,-0.067 12.7648,-0.8443 1.57551,-0.3971 1.82582,-0.41 3.29963,-0.9653 0.459,-0.1729 1.74676,-0.8666 1.35698,-0.5689 -0.9048,0.691 -1.95473,1.16787 -2.92374,1.76549 -0.3235,0.1995 0.6681,-0.3641 0.9869,-0.571 0.2608,-0.1693 0.4993,-0.3706 0.749,-0.5558 0.9991,-0.9338 1.40832,-1.40358 0.9801,-2.77243 -0.4719,-1.04786 -1.25188,-0.998 -2.29798,-1.13528 -2.08511,-0.1529 -4.17397,-0.1514 -6.26101,-0.2707 -4.19475,-0.3436 -8.0985,-1.0237 -11.83291,-3.11512 -2.03232,-1.19666 -2.92583,-1.6254 -4.79442,-3.13856 -3.86717,-3.13156 -6.96598,-7.09828 -9.69966,-11.22142 -0.7273,-1.20767 -1.4865,-2.39664 -2.18175,-3.62301 -2.96507,-5.23019 -5.48938,-10.84115 -6.20579,-16.86253 8e-5,-0.006 -0.072,-2.93123 0.2658,-3.23393 0.1026,-0.092 3.47478,-3.28066 5.33216,-3.15236 0.4824,0.033 1.18586,0.3157 1.62002,0.4669 1.99972,0.7913 3.98282,1.62414 5.98525,2.40884 2.09108,0.8842 4.20417,1.71537 6.26455,2.67164 2.12298,0.8771 4.20289,1.84654 6.32295,2.72985 2.0443,0.8908 3.99638,1.92736 5.54711,3.57608 0.3224,0.3456 0.6624,0.6756 0.9671,1.03691 1.86498,2.21152 3.32847,4.74036 5.07631,7.03946 2.21826,3.4262 4.2195,6.99397 6.04586,10.64404 2.54818,5.16934 5.15504,10.31039 7.63161,15.51487 0.511,1.01886 1.90622,3.83194 2.49705,4.89729 1.39291,2.51163 3.07362,4.83316 5.02398,6.94191 0.9673,1.13383 1.95237,2.25262 2.91139,3.3935 1.65914,1.97378 3.25806,4.00327 4.9533,5.94663 0.5274,0.6046 1.08282,1.18408 1.62423,1.77611 1.06167,0.9552 2.14774,2.14071 3.5764,2.55496 0.5403,0.1567 1.09378,0.089 1.6432,0.078 0,0 -4.07234,2.95873 -4.07234,2.95873 z"
     inkscape:connector-curvature="0" />
  <path
     style="fill:#000000;fill-opacity:1;stroke:#000000;stroke-width:26.60308456;stroke-miterlimit:4;stroke-dasharray:26.6030836, 53.2061672;stroke-dashoffset:0;stroke-opacity:1"
     id="path4664"
     d="m 259.73481,369.53741 c -0.1612,-0.1353 -0.3531,-0.2409 -0.4836,-0.406 -0.566,-0.7159 -1.08203,-1.93161 -1.4018,-2.70061 -1.1144,-2.67995 -1.88039,-5.45082 -2.65847,-8.24136 -0.4368,-2.31112 -1.52668,-5.01431 -1.15397,-7.42115 0.3929,-2.53741 3.73258,-3.47661 5.7777,-3.90666 0.6749,-0.1419 1.14378,0.7709 1.71567,1.15631 0.6672,0.7221 1.38193,1.40304 2.00167,2.16627 4.36479,5.37545 7.48341,11.9086 10.50886,18.09689 1.19106,2.67275 2.6194,5.24964 3.66937,7.986 0.3641,0.9489 0.7908,2.21678 0.8471,3.2691 0.021,0.3941 -0.073,0.7859 -0.1092,1.17882 -0.2969,1.04233 -0.9233,1.82885 -1.87177,2.36423 -4.36592,2.4643 -4.02174,2.69539 -7.52155,3.2271 -1.36287,0.093 -2.73843,0.236 -4.10693,0.1885 -0.5332,-0.019 -1.07652,-0.006 -1.59508,-0.1314 -1.56037,-0.3771 -2.32761,-1.03921 -3.68631,-1.90046 -0.6746,-0.613 -1.39586,-1.17832 -2.02374,-1.83911 -3.49737,-3.68067 -6.18287,-8.36602 -8.19377,-12.99394 -0.5669,-1.30467 -1.04642,-2.64559 -1.56963,-3.96838 -2.23664,-6.32048 -3.41155,-12.92413 -4.01483,-19.58096 -0.376,-3.64655 -0.1618,-7.30292 -0.02,-10.95391 -0.02,-2.47191 0.2856,-4.97589 -0.057,-7.43534 -0.05,-0.1693 -0.073,-0.3495 -0.1508,-0.508 -0.4434,-0.9013 -1.8641,-0.3749 -2.55763,-0.2043 -0.2516,0.098 -0.5079,0.1851 -0.7549,0.2944 -0.2953,0.1306 -0.5872,0.2701 -0.8706,0.4248 -0.3242,0.177 -1.27573,0.7447 -0.9505,0.5697 1.01691,-0.5472 1.99547,-1.16565 3.02609,-1.68654 0.3902,-0.1972 -0.7314,0.4793 -1.10073,0.7134 -0.3647,0.2312 -0.7341,0.4549 -1.10119,0.6824 -13.17908,7.6095 -2.4293,1.39921 -1.92312,1.11683 0.2633,-0.1469 -0.515,0.3141 -0.7652,0.4825 -0.5992,0.4031 -0.9936,0.7957 -1.39011,1.39131 -0.048,0.2081 -0.1318,0.411 -0.1426,0.6242 -0.08,1.56741 1.27733,3.22885 2.12545,4.4274 1.62924,2.12333 3.74364,3.74233 5.86063,5.34058 1.79956,1.40536 3.6133,2.79031 5.41679,4.19075 0.8121,0.7439 0.4493,0.3617 1.1012,1.1346 0,0 -4.21413,2.52246 -4.21413,2.52246 v 0 c -0.5665,-0.7304 -0.2425,-0.3655 -0.9901,-1.07847 -1.75764,-1.43446 -3.55044,-2.82401 -5.32639,-4.23528 -2.14205,-1.64232 -4.28912,-3.30252 -5.96952,-5.4421 -1.16935,-1.62713 -2.58062,-3.35894 -2.36091,-5.48185 0.2579,-0.5074 0.3256,-0.7409 0.7466,-1.15081 0.2911,-0.2835 1.09863,-0.8131 1.41543,-0.9992 0.6542,-0.3842 10.01416,-5.78728 1.97808,-1.12586 0.7401,-0.4489 1.45877,-0.9326 2.19928,-1.38093 1.70802,-1.03397 3.42531,-2.05264 5.14537,-3.06647 0.67,-0.3949 1.21437,-0.6942 1.93632,-0.9715 0.2623,-0.1008 0.5361,-0.1689 0.8041,-0.2534 1.43989,-0.2625 2.8222,-0.3657 3.14845,1.39749 0.2341,2.53283 -0.141,5.08254 -0.1442,7.61927 -0.117,3.6596 -0.3362,7.32196 -0.1466,10.98331 0.3822,6.71449 1.28892,13.30923 3.55209,19.68394 0.5202,1.31369 0.9921,2.64752 1.56049,3.94108 2.04419,4.65223 4.74392,9.1071 8.43436,12.65004 0.6472,0.6213 1.3849,1.14085 2.07735,1.71128 1.47108,0.8162 2.07701,1.32712 3.70206,1.62785 0.5237,0.097 1.06326,0.073 1.59581,0.078 1.377,0.011 2.75918,-0.1271 4.1248,-0.2845 0.3864,-0.071 0.7766,-0.1241 1.15918,-0.2138 0.3803,-0.089 1.42751,-0.5713 1.12666,-0.3222 -0.9352,0.7744 -2.06316,1.28121 -3.08218,1.94147 -0.2857,0.1851 0.6075,-0.3136 0.8814,-0.5156 0.779,-0.5743 0.7218,-0.6736 1.17887,-1.49262 0.08,-0.3655 0.2222,-0.7227 0.2399,-1.09643 0.05,-1.05952 -0.2869,-2.29936 -0.5945,-3.27561 -0.8823,-2.79995 -2.15713,-5.46534 -3.29331,-8.16418 -2.39429,-5.19658 -4.85655,-10.34912 -8.30121,-14.95254 -0.7447,-0.9952 -1.52016,-1.97179 -2.37006,-2.87878 -0.6587,-0.7029 -1.42908,-1.29208 -2.14362,-1.93811 -2.26774,-1.05515 -3.16593,-0.8684 1.19115,-2.98414 0.4144,-0.2012 -0.6145,0.7234 -0.7418,1.1661 -0.6434,2.23782 0.4204,5.26393 0.8418,7.42747 0.6994,2.45323 0.9001,3.41259 1.85412,5.76439 0.5026,1.23888 1.51327,3.6028 2.58942,4.56545 0.1173,0.105 0.2875,0.1283 0.4313,0.1925 0,0 -4.1116,2.88473 -4.1116,2.88473 z"
     inkscape:connector-curvature="0" />
  <path
     style="fill:#000000;fill-opacity:1;stroke:#000000;stroke-width:26.60308456;stroke-miterlimit:4;stroke-dasharray:26.6030836, 53.2061672;stroke-dashoffset:0;stroke-opacity:1"
     id="path4666"
     d="m 265.52931,361.39805 c -0.4193,-0.025 -0.8492,-0.2093 -1.26545,-0.2225 -0.1421,-0.005 -0.5426,0.1478 -0.4197,0.076 4.31357,-2.51245 4.8604,-3.47641 3.89274,-1.93613 0.018,0.1809 0.018,0.3645 0.055,0.5427 0.1192,0.5856 0.3184,1.15206 0.4898,1.72453 0.409,1.36633 0.8927,2.70353 1.37486,4.0453 0.897,2.40924 1.84222,4.81099 3.16252,7.02282 0.396,0.5402 0.7421,1.22166 1.31509,1.61245 0.1076,0.073 0.235,0.1617 0.3638,0.1424 0.1092,-0.016 0.3359,-0.28 0.2364,-0.2321 -1.34256,0.6457 -2.6535,1.35513 -3.98025,2.03269 0.09,-0.2962 0.2067,-0.5857 0.2705,-0.8887 0.1792,-0.8508 0.2872,-2.23433 0.3404,-3.05135 0.1382,-2.12389 0.1528,-4.25123 0.1745,-6.37852 -0.073,-3.05703 0.1949,-6.15994 -0.3924,-9.18408 -0.1058,-0.5448 -0.2688,-1.07692 -0.4032,-1.61538 -0.8448,-2.59569 -1.96675,-5.14873 -3.79225,-7.20568 -0.803,-0.7913 -1.76087,-1.02272 -2.84388,-1.06261 -0.5733,0.018 -1.2134,-0.05 -1.75294,0.2004 -0.1585,0.073 -0.5885,0.3753 -0.4351,0.2919 1.26317,-0.6864 2.51064,-1.40125 3.76596,-2.10187 -1.49604,1.37142 -1.759,3.42233 -2.00105,5.33227 -0.3749,2.75501 0.065,5.45787 0.7216,8.12817 0.6827,2.55409 1.73811,4.98687 2.83702,7.38439 0.4052,0.8013 0.7229,1.66005 1.22096,2.41305 0.079,0.1201 0.1484,0.2637 0.2742,0.3336 0.046,0.026 0.1354,-0.1563 0.088,-0.1325 -1.4401,0.724 -2.85621,1.49481 -4.28431,2.24222 -0.008,-0.2254 -5.3e-4,-0.452 -0.025,-0.6763 -0.347,-3.20261 -1.29753,-6.3442 -2.08542,-9.45568 -0.649,-2.53816 -1.77354,-5.08473 -1.60905,-7.75158 0.1116,-0.5562 0.3135,-1.24703 0.8493,-1.55997 4.51662,-2.6382 2.91406,-2.29565 5.05174,-2.69132 1.26825,-0.1893 2.22469,0.9372 2.99962,1.78643 0.8292,0.9901 1.47161,1.48398 2.72339,1.77082 0.4322,0.074 0.87,0.1028 1.30776,0.1157 0.056,0.002 0.2136,-0.032 0.1685,0.002 -4.10311,3.03423 -2.49006,3.12982 -4.45077,2.94241 -1.09433,0.005 -2.17308,-0.1349 -3.22477,-0.4338 -1.17914,-0.264 -2.17795,-0.9387 -3.10371,-1.68672 -0.7962,-0.7511 -1.72089,-1.34926 -2.48942,-2.12865 -0.6028,-0.683 -0.8027,-1.5111 -0.7152,-2.39989 0.2013,-0.8789 0.7534,-1.59575 1.40648,-2.19338 1.36023,-0.7072 3.67114,-2.87926 5.80942,-2.90225 0.3748,-0.004 0.5823,0.065 0.9502,0.1456 1.11176,0.2973 1.83446,1.08107 2.34002,2.07188 0.2983,0.8782 0.602,1.75399 0.9062,2.63118 0.2791,0.8255 0.3297,1.68363 0.2625,2.54483 -0.1268,1.12179 -0.7012,2.10876 -1.11826,3.13862 -0.2726,0.6775 -0.3994,1.39132 -0.4539,2.11534 -0.019,0.4032 -0.01,0.1936 -0.026,0.6288 0,0 -4.45726,2.26321 -4.45726,2.26321 v 0 c -0.003,-0.4446 -0.005,-0.2288 0.005,-0.6474 0.044,-0.778 0.1579,-1.54622 0.4354,-2.27963 0.3915,-1.00083 0.9723,-1.93424 1.16149,-3.00212 0.087,-0.7977 0.076,-1.58402 -0.1737,-2.3575 -0.2777,-0.8618 -0.5906,-1.71095 -0.8459,-2.57909 -0.4499,-0.8721 -1.08777,-1.51007 -2.0957,-1.6738 -0.5689,-0.05 -1.10316,-0.028 -1.64268,0.1852 -0.1217,0.048 -0.465,0.2392 -0.3527,0.1721 1.30161,-0.7777 2.61447,-1.53633 3.92171,-2.30449 -0.6908,0.4523 -1.23038,1.08877 -1.55362,1.85342 -0.1868,0.7336 -0.02,1.4163 0.4751,1.997 0.7462,0.7643 1.64543,1.36012 2.42061,2.09543 0.907,0.6869 1.86913,1.27613 2.99791,1.51385 1.05688,0.2466 2.13157,0.3466 3.21741,0.2851 1.93132,-0.1672 0.5544,-0.099 -3.71785,2.93326 -0.022,0.015 -1.35845,-0.209 -1.45487,-0.2383 -1.27093,-0.4022 -1.97659,-1.00183 -2.81774,-2.03315 -0.7542,-0.7836 -1.59347,-1.65937 -2.76891,-1.29857 -1.8037,0.6457 -0.3932,0.1669 3.54379,-2.17492 0.1054,-0.063 -0.2231,0.1041 -0.3248,0.1725 -0.3845,0.2587 -0.6285,0.5993 -0.7656,1.04201 -0.4582,2.6246 0.5794,5.26778 1.16648,7.78821 0.8484,3.36183 1.83495,6.68676 2.64478,10.05865 -1.4543,0.9453 -2.85817,1.97305 -4.3629,2.83578 -0.066,0.038 -0.2831,-0.2825 -0.4643,-0.6291 -0.4231,-0.8093 -0.7553,-1.66469 -1.13164,-2.49544 -1.09717,-2.43056 -2.10526,-4.92166 -2.82673,-7.49042 -0.6707,-2.70501 -1.18133,-5.45797 -0.8418,-8.25521 0.1921,-1.96152 0.389,-4.03454 1.69573,-5.61255 3.07236,-1.86 4.0187,-3.31582 7.04802,-3.12211 1.17346,0.1282 2.16745,0.5479 2.96898,1.4546 1.71893,2.22908 2.79786,4.84869 3.7222,7.49054 0.3999,1.61634 0.4851,1.73548 0.6713,3.40979 0.2788,2.50774 0.025,5.03299 0.073,7.54822 -0.031,3.44773 0.064,6.91922 -0.3238,10.3488 -1.50185,1.0079 -2.9526,2.09644 -4.50554,3.02369 -0.5947,0.3551 -1.95035,-1.79018 -2.12831,-2.13524 -1.25198,-2.28417 -2.16836,-4.72599 -3.07279,-7.16452 -0.8018,-2.11889 -1.67811,-4.22147 -2.29016,-6.40455 -0.005,-0.199 -0.1781,-0.4834 -0.015,-0.5971 3.81105,-2.6527 3.48478,-2.84933 6.40733,-2.38083 0,0 -4.12912,2.87719 -4.12912,2.87719 z"
     inkscape:connector-curvature="0" />
  <path
     style="fill:#000000;fill-opacity:1;stroke:#000000;stroke-width:26.60308456;stroke-miterlimit:4;stroke-dasharray:26.6030836, 53.2061672;stroke-dashoffset:0;stroke-opacity:1"
     id="path4668"
     d="m 273.78506,355.2875 c 0.7139,2.82987 1.63784,5.60453 2.45358,8.40731 1.18734,4.73674 1.91735,9.57803 2.66712,14.39999 0.5701,3.38672 0.9186,6.80747 1.55391,10.18318 0.06,0.3193 0.7638,3.74201 0.8493,4.15853 0.5454,2.37528 1.17169,4.74996 2.1186,7.00013 0.4273,0.9825 1.00955,1.95246 0.8443,3.05427 -0.1745,0.7212 -0.7564,1.10805 -1.30575,1.53882 -0.8192,0.6447 -1.33454,1.51846 -1.69799,2.47863 -0.2586,0.9735 -0.8435,1.93314 -0.6304,2.96086 0.2232,0.5436 0.7128,0.6554 1.19779,0.8966 0.6041,0.3004 0.4624,0.2319 1.08888,0.5859 1.10375,0.7347 2.2148,1.45578 3.33922,2.15826 1.23385,0.6664 1.728,0.608 3.04499,0.2325 0.2558,-0.094 0.5143,-0.1818 0.7674,-0.2831 1.20135,-0.4808 2.32961,-1.09152 3.46665,-1.70537 0.5018,-0.2709 1.99487,-1.10543 1.50446,-0.8144 -0.755,0.4481 -1.53252,0.8572 -2.29878,1.28578 2.97515,-1.89866 5.97849,-3.83303 8.5964,-6.21814 0.4244,-0.3867 0.8202,-0.8036 1.23033,-1.20541 0.4805,-0.5188 1.42493,-1.55438 1.95972,-2.0758 0.2441,-0.238 0.4689,-0.5067 0.7592,-0.6855 1.58795,-0.9782 3.19993,-1.9221 4.85851,-2.77509 0.1937,-0.1 0.4355,-0.091 0.6509,-0.058 0.2154,0.033 0.4031,0.1653 0.6046,0.2479 1.00025,0.6588 1.78435,1.57892 2.77431,2.2502 1.12481,0.6466 2.43344,0.8032 3.65983,1.16874 1.0083,0.3827 2.03854,0.7794 2.83945,1.52184 0,0 -4.26635,2.61949 -4.26635,2.61949 v 0 c -0.6932,-0.734 -1.663,-1.0744 -2.60359,-1.37909 -1.29136,-0.3436 -2.67175,-0.5192 -3.80626,-1.27464 -0.9147,-0.681 -1.6655,-1.57772 -2.67966,-2.11739 -0.1553,-0.024 -0.3091,-0.081 -0.4658,-0.071 -1.15818,0.079 -5.5464,3.18652 2.90206,-1.94191 0.3156,-0.1713 -0.5716,0.4361 -0.839,0.6758 -0.7733,0.6933 -1.34549,1.35191 -2.05588,2.11965 -0.4186,0.4173 -0.821,0.8515 -1.25571,1.252 -2.60905,2.40412 -5.62163,4.34611 -8.57391,6.29023 -3.74328,2.19266 -7.50066,4.70049 -11.62951,6.1546 -1.33505,0.2845 -2.1424,0.1899 -3.30901,-0.5354 -1.09703,-0.7149 -2.15553,-1.49078 -3.29005,-2.1458 -0.5646,-0.2872 -1.56834,-0.6636 -2.03198,-1.05587 -0.2682,-0.227 -0.351,-0.4501 -0.5148,-0.7522 -0.046,-0.1641 -0.1152,-0.3233 -0.1369,-0.4923 -0.1228,-0.9574 0.4922,-1.82922 0.6716,-2.73559 0.3051,-1.02212 0.7676,-1.97503 1.55458,-2.71872 0.4772,-0.4088 1.06945,-0.7087 1.40571,-1.24903 0.4361,-0.9413 -0.2841,-1.93921 -0.5804,-2.82482 -0.9149,-2.31962 -1.42311,-4.78393 -1.90308,-7.22386 -0.2522,-1.40606 -0.5221,-2.809 -0.7624,-4.21714 -0.5785,-3.38999 -0.9309,-6.81404 -1.53237,-10.20103 -0.7328,-4.79162 -1.50819,-9.59744 -2.74098,-14.2885 -0.8685,-2.77255 -1.75906,-5.54483 -2.89089,-8.22314 0,0 4.43818,-2.37285 4.43818,-2.37285 z"
     inkscape:connector-curvature="0" />
  <path
     style="fill:#000000;fill-opacity:1;stroke:#000000;stroke-width:26.60308456;stroke-miterlimit:4;stroke-dasharray:26.6030836, 53.2061672;stroke-dashoffset:0;stroke-opacity:1"
     id="path4670"
     d="m 298.75286,403.92143 c 2.31974,1.13044 4.69683,2.13356 7.05905,3.17061 1.90941,0.9206 3.78727,1.90347 5.68744,2.84306 0.9848,0.5171 1.87985,1.18835 2.94642,1.5289 1.22187,0.2515 2.47448,0.365 3.7164,0.489 0.9069,0.2083 0.4616,0.1016 1.33611,0.3195 0,0 -4.0485,2.79542 -4.0485,2.79542 v 0 c -0.8457,-0.2032 -0.4153,-0.1129 -1.29171,-0.269 -1.27547,-0.1389 -2.57812,-0.2083 -3.81498,-0.5623 -1.05145,-0.405 -1.95531,-1.06609 -2.93244,-1.61753 -1.83947,-0.9795 -3.65948,-1.99844 -5.53192,-2.91334 -2.40034,-1.07739 -4.81891,-2.11606 -7.27825,-3.05233 0,0 4.15238,-2.73211 4.15238,-2.73211 z"
     inkscape:connector-curvature="0" />
  <text
     xml:space="preserve"
     style="font-style:normal;font-weight:normal;font-size:503.25131226px;line-height:1.25;font-family:sans-serif;letter-spacing:0px;word-spacing:0px;fill:#ffffff;fill-opacity:1;stroke:none;stroke-width:12.58128262"
     x="173.14958"
     y="623.9538"
     id="text4522-3"
     transform="scale(1.2581283,0.7948315)"><tspan
       sodipodi:role="line"
       id="tspan4520-6"
       x="173.14958"
       y="623.9538"
       style="fill:#ffffff;fill-opacity:1;stroke-width:12.58128262">-</tspan></text>
</svg>
